<svg width="116" height="36" viewBox="0 0 116 36" xmlns="http://www.w3.org/2000/svg">
  <g fill="none" fill-rule="evenodd">
    <path d="M54.725 23h-2.47l-6.34-10.088V23h-2.47V8.78h2.47l6.358 10.128V8.78h2.452V23zm2.846-5.36c0-1.642.39-2.952 1.16-3.932.77-.98 1.8-1.47 3.07-1.47 1.21 0 2.16.42 2.85 1.26l.11-1.064h2.14v10.244c0 1.386-.43 2.48-1.29 3.28-.86.802-2.02 1.202-3.49 1.202-.77 0-1.53-.16-2.27-.483-.74-.323-1.3-.744-1.68-1.265l1.13-1.426c.73.866 1.63 1.3 2.7 1.3.787 0 1.41-.214 1.864-.64.455-.427.683-1.054.683-1.88v-.713c-.685.76-1.596 1.142-2.736 1.142-1.24 0-2.25-.49-3.032-1.474-.78-.98-1.173-2.34-1.173-4.08zm2.37.204c0 1.06.22 1.896.65 2.505.43.6 1.04.91 1.8.91.96 0 1.67-.41 2.13-1.23v-4.65c-.45-.8-1.15-1.2-2.11-1.2-.78 0-1.39.31-1.82.92-.43.62-.65 1.53-.65 2.73zm17.62 1.494c0-.625-.22-1.107-.66-1.445-.44-.34-1.23-.68-2.37-1.026-1.14-.345-2.05-.73-2.73-1.152-1.3-.815-1.95-1.875-1.95-3.185 0-1.14.47-2.09 1.4-2.83.94-.74 2.15-1.11 3.64-1.11.99 0 1.87.18 2.65.55.78.366 1.39.886 1.83 1.56.44.674.66 1.42.66 2.242h-2.46c0-.743-.23-1.324-.7-1.744-.46-.42-1.13-.63-1.99-.63-.81 0-1.44.173-1.88.518-.45.346-.67.828-.67 1.446 0 .52.24.955.72 1.303.48.35 1.28.688 2.38 1.017 1.11.33 2 .705 2.67 1.125.67.42 1.16.903 1.475 1.446.31.546.47 1.18.47 1.91 0 1.187-.456 2.13-1.365 2.83-.91.7-2.14 1.05-3.698 1.05-1.03 0-1.98-.19-2.84-.572-.862-.38-1.532-.9-2.01-1.57-.48-.67-.72-1.45-.72-2.34h2.47c0 .81.268 1.43.8 1.88.536.45 1.3.67 2.297.67.856 0 1.503-.172 1.936-.52.434-.35.65-.81.65-1.38zm7.32-5.752c.78-.9 1.76-1.348 2.94-1.348 2.25 0 3.4 1.286 3.43 3.858V23h-2.38v-6.816c0-.73-.15-1.246-.47-1.548-.31-.303-.78-.454-1.39-.454-.95 0-1.66.423-2.13 1.27V23h-2.37V8h2.38v5.586zm8.89 4.033c0-1.04.21-1.97.62-2.8.41-.83.99-1.47 1.73-1.92.74-.45 1.6-.67 2.56-.67 1.43 0 2.59.46 3.48 1.38.89.92 1.37 2.13 1.44 3.65l.01.55c0 1.04-.2 1.97-.6 2.79-.4.82-.97 1.45-1.72 1.9-.74.45-1.6.67-2.58.67-1.49 0-2.68-.5-3.58-1.49-.89-.99-1.34-2.32-1.34-3.97v-.11zm2.38.2c0 1.08.23 1.94.68 2.55.45.61 1.08.92 1.88.92.8 0 1.43-.32 1.87-.94.45-.63.67-1.54.67-2.75 0-1.07-.23-1.92-.69-2.54-.46-.63-1.08-.94-1.87-.94-.77 0-1.39.3-1.84.92-.46.61-.68 1.53-.68 2.76zm19.29 0c0 1.63-.37 2.94-1.11 3.91-.74.97-1.74 1.46-2.99 1.46-1.16 0-2.08-.38-2.78-1.14v5.01h-2.37V12.43h2.19l.1 1.074c.7-.85 1.65-1.27 2.848-1.27 1.29 0 2.3.48 3.034 1.44.73.96 1.1 2.292 1.1 4v.144zm-2.36-.21c0-1.06-.21-1.89-.63-2.51-.42-.62-1.02-.93-1.8-.93-.97 0-1.67.4-2.09 1.2v4.68c.43.82 1.13 1.23 2.11 1.23.76 0 1.35-.31 1.78-.91.43-.61.64-1.53.64-2.77zM16.92 0L.162 5.976l2.556 22.158L16.92 36l14.202-7.866 2.556-22.158" fill="#212121"/>
    <path d="M12 24c-1.1 0-1.99.9-1.99 2s.89 2 1.99 2 2-.9 2-2-.9-2-2-2zM6 8v2h2l3.6 7.59-1.35 2.45c-.16.28-.25.61-.25.96 0 1.1.9 2 2 2h12v-2H12.42c-.14 0-.25-.11-.25-.25l.03-.12.9-1.63h7.45c.75 0 1.41-.41 1.75-1.03l3.58-6.49c.08-.14.12-.31.12-.48 0-.55-.45-1-1-1H10.21l-.94-2H6zm16 16c-1.1 0-1.99.9-1.99 2s.89 2 1.99 2 2-.9 2-2-.9-2-2-2z" fill="#FFF"/>
    <path d="M5 6h24v24H5"/>
  </g>
</svg>
