<?xml version="1.0" encoding="UTF-8" standalone="no"?>
<!DOCTYPE svg PUBLIC "-//W3C//DTD SVG 1.1//EN"
 "http://www.w3.org/Graphics/SVG/1.1/DTD/svg11.dtd">
<!-- Generated by graphviz version 2.40.1 (20161225.0304)
 -->
<!-- Title: dependencies Pages: 1 -->
<svg width="1646pt" height="284pt"
 viewBox="0.00 0.00 1646.00 284.00" xmlns="http://www.w3.org/2000/svg" xmlns:xlink="http://www.w3.org/1999/xlink">
<g id="graph0" class="graph" transform="scale(1 1) rotate(0) translate(4 280)">
<title>dependencies</title>
<polygon fill="#ffffff" stroke="transparent" points="-4,4 -4,-280 1642,-280 1642,4 -4,4"/>
<text text-anchor="start" x="798.0091" y="-42.4" font-family="sans-serif" font-weight="bold" font-size="14.00" fill="#000000">Legend</text>
<polygon fill="#ffffb3" stroke="transparent" points="585,-10 585,-30 605,-30 605,-10 585,-10"/>
<text text-anchor="start" x="608.629" y="-15.4" font-family="sans-serif" font-size="14.00" fill="#000000"> &#160;Declarations</text>
<polygon fill="#8dd3c7" stroke="transparent" points="698,-10 698,-30 718,-30 718,-10 698,-10"/>
<text text-anchor="start" x="721.7251" y="-15.4" font-family="sans-serif" font-size="14.00" fill="#000000"> &#160;Module</text>
<polygon fill="#80b1d3" stroke="transparent" points="784,-10 784,-30 804,-30 804,-10 784,-10"/>
<text text-anchor="start" x="807.7812" y="-15.4" font-family="sans-serif" font-size="14.00" fill="#000000"> &#160;Bootstrap</text>
<polygon fill="#fdb462" stroke="transparent" points="881,-10 881,-30 901,-30 901,-10 881,-10"/>
<text text-anchor="start" x="904.6732" y="-15.4" font-family="sans-serif" font-size="14.00" fill="#000000"> &#160;Providers</text>
<polygon fill="#fb8072" stroke="transparent" points="977,-10 977,-30 997,-30 997,-10 977,-10"/>
<text text-anchor="start" x="1000.7258" y="-15.4" font-family="sans-serif" font-size="14.00" fill="#000000"> &#160;Exports</text>
<g id="clust1" class="cluster">
<title>cluster_AppModule</title>
<polygon fill="none" stroke="#000000" stroke-dasharray="1,5" points="8,-70 8,-268 1630,-268 1630,-70 8,-70"/>
</g>
<g id="clust2" class="cluster">
<title>cluster_AppModule_declarations</title>
<polygon fill="none" stroke="#000000" points="332,-78 332,-130 1622,-130 1622,-78 332,-78"/>
</g>
<g id="clust12" class="cluster">
<title>cluster_AppModule_imports</title>
<polygon fill="none" stroke="#000000" points="180,-78 180,-130 324,-130 324,-78 180,-78"/>
</g>
<g id="clust14" class="cluster">
<title>cluster_AppModule_bootstrap</title>
<polygon fill="none" stroke="#000000" points="795,-208 795,-260 919,-260 919,-208 795,-208"/>
</g>
<g id="clust15" class="cluster">
<title>cluster_AppModule_providers</title>
<polygon fill="none" stroke="#000000" points="16,-78 16,-130 172,-130 172,-78 16,-78"/>
</g>
<!-- AppComponent -->
<g id="node1" class="node">
<title>AppComponent</title>
<polygon fill="#ffffb3" stroke="#000000" points="1613.9399,-122 1508.0601,-122 1508.0601,-86 1613.9399,-86 1613.9399,-122"/>
<text text-anchor="middle" x="1561" y="-99.8" font-family="Times,serif" font-size="14.00" fill="#000000">AppComponent</text>
</g>
<!-- AppModule -->
<g id="node10" class="node">
<title>AppModule</title>
<polygon fill="#8dd3c7" stroke="#000000" points="898.6571,-187 895.6571,-191 874.6571,-191 871.6571,-187 815.3429,-187 815.3429,-151 898.6571,-151 898.6571,-187"/>
<text text-anchor="middle" x="857" y="-164.8" font-family="Times,serif" font-size="14.00" fill="#000000">AppModule</text>
</g>
<!-- AppComponent&#45;&gt;AppModule -->
<g id="edge1" class="edge">
<title>AppComponent&#45;&gt;AppModule</title>
<path fill="none" stroke="#000000" d="M1561,-122.2479C1561,-145.0179 1561,-181 1561,-181 1561,-181 908.6698,-181 908.6698,-181"/>
<polygon fill="#000000" stroke="#000000" points="908.6698,-177.5001 898.6698,-181 908.6697,-184.5001 908.6698,-177.5001"/>
</g>
<!-- HomeComponent -->
<g id="node2" class="node">
<title>HomeComponent</title>
<polygon fill="#ffffb3" stroke="#000000" points="1490.5451,-122 1375.4549,-122 1375.4549,-86 1490.5451,-86 1490.5451,-122"/>
<text text-anchor="middle" x="1433" y="-99.8" font-family="Times,serif" font-size="14.00" fill="#000000">HomeComponent</text>
</g>
<!-- HomeComponent&#45;&gt;AppModule -->
<g id="edge2" class="edge">
<title>HomeComponent&#45;&gt;AppModule</title>
<path fill="none" stroke="#000000" d="M1433,-122.2843C1433,-143.3211 1433,-175 1433,-175 1433,-175 908.8885,-175 908.8885,-175"/>
<polygon fill="#000000" stroke="#000000" points="908.8885,-171.5001 898.8885,-175 908.8884,-178.5001 908.8885,-171.5001"/>
</g>
<!-- CarouselComponent -->
<g id="node3" class="node">
<title>CarouselComponent</title>
<polygon fill="#ffffb3" stroke="#000000" points="1357.594,-122 1226.406,-122 1226.406,-86 1357.594,-86 1357.594,-122"/>
<text text-anchor="middle" x="1292" y="-99.8" font-family="Times,serif" font-size="14.00" fill="#000000">CarouselComponent</text>
</g>
<!-- CarouselComponent&#45;&gt;AppModule -->
<g id="edge3" class="edge">
<title>CarouselComponent&#45;&gt;AppModule</title>
<path fill="none" stroke="#000000" d="M1292,-122.1061C1292,-141.3391 1292,-169 1292,-169 1292,-169 908.7096,-169 908.7096,-169"/>
<polygon fill="#000000" stroke="#000000" points="908.7097,-165.5001 898.7096,-169 908.7096,-172.5001 908.7097,-165.5001"/>
</g>
<!-- FooterComponent -->
<g id="node4" class="node">
<title>FooterComponent</title>
<polygon fill="#ffffb3" stroke="#000000" points="1208.8809,-122 1091.1191,-122 1091.1191,-86 1208.8809,-86 1208.8809,-122"/>
<text text-anchor="middle" x="1150" y="-99.8" font-family="Times,serif" font-size="14.00" fill="#000000">FooterComponent</text>
</g>
<!-- FooterComponent&#45;&gt;AppModule -->
<g id="edge4" class="edge">
<title>FooterComponent&#45;&gt;AppModule</title>
<path fill="none" stroke="#000000" d="M1150,-122.0225C1150,-139.3734 1150,-163 1150,-163 1150,-163 908.6686,-163 908.6686,-163"/>
<polygon fill="#000000" stroke="#000000" points="908.6686,-159.5001 898.6686,-163 908.6686,-166.5001 908.6686,-159.5001"/>
</g>
<!-- NavbarComponent -->
<g id="node5" class="node">
<title>NavbarComponent</title>
<polygon fill="#ffffb3" stroke="#000000" points="1073.0297,-122 950.9703,-122 950.9703,-86 1073.0297,-86 1073.0297,-122"/>
<text text-anchor="middle" x="1012" y="-99.8" font-family="Times,serif" font-size="14.00" fill="#000000">NavbarComponent</text>
</g>
<!-- NavbarComponent&#45;&gt;AppModule -->
<g id="edge5" class="edge">
<title>NavbarComponent&#45;&gt;AppModule</title>
<path fill="none" stroke="#000000" d="M1012,-122.2396C1012,-137.5706 1012,-157 1012,-157 1012,-157 908.9452,-157 908.9452,-157"/>
<polygon fill="#000000" stroke="#000000" points="908.9453,-153.5001 898.9452,-157 908.9452,-160.5001 908.9453,-153.5001"/>
</g>
<!-- ProductItemComponent -->
<g id="node6" class="node">
<title>ProductItemComponent</title>
<polygon fill="#ffffb3" stroke="#000000" points="932.0379,-122 781.9621,-122 781.9621,-86 932.0379,-86 932.0379,-122"/>
<text text-anchor="middle" x="857" y="-99.8" font-family="Times,serif" font-size="14.00" fill="#000000">ProductItemComponent</text>
</g>
<!-- ProductItemComponent&#45;&gt;AppModule -->
<g id="edge6" class="edge">
<title>ProductItemComponent&#45;&gt;AppModule</title>
<path fill="none" stroke="#000000" d="M857,-122.1061C857,-122.1061 857,-140.991 857,-140.991"/>
<polygon fill="#000000" stroke="#000000" points="853.5001,-140.9909 857,-150.991 860.5001,-140.991 853.5001,-140.9909"/>
</g>
<!-- ProductDetailComponent -->
<g id="node7" class="node">
<title>ProductDetailComponent</title>
<polygon fill="#ffffb3" stroke="#000000" points="763.5884,-122 604.4116,-122 604.4116,-86 763.5884,-86 763.5884,-122"/>
<text text-anchor="middle" x="684" y="-99.8" font-family="Times,serif" font-size="14.00" fill="#000000">ProductDetailComponent</text>
</g>
<!-- ProductDetailComponent&#45;&gt;AppModule -->
<g id="edge7" class="edge">
<title>ProductDetailComponent&#45;&gt;AppModule</title>
<path fill="none" stroke="#000000" d="M684,-122.2396C684,-137.5706 684,-157 684,-157 684,-157 805.1215,-157 805.1215,-157"/>
<polygon fill="#000000" stroke="#000000" points="805.1216,-160.5001 815.1215,-157 805.1215,-153.5001 805.1216,-160.5001"/>
</g>
<!-- SearchComponent -->
<g id="node8" class="node">
<title>SearchComponent</title>
<polygon fill="#ffffb3" stroke="#000000" points="586.9201,-122 467.0799,-122 467.0799,-86 586.9201,-86 586.9201,-122"/>
<text text-anchor="middle" x="527" y="-99.8" font-family="Times,serif" font-size="14.00" fill="#000000">SearchComponent</text>
</g>
<!-- SearchComponent&#45;&gt;AppModule -->
<g id="edge8" class="edge">
<title>SearchComponent&#45;&gt;AppModule</title>
<path fill="none" stroke="#000000" d="M527,-122.0225C527,-139.3734 527,-163 527,-163 527,-163 805.2053,-163 805.2053,-163"/>
<polygon fill="#000000" stroke="#000000" points="805.2053,-166.5001 815.2053,-163 805.2052,-159.5001 805.2053,-166.5001"/>
</g>
<!-- StarsComponent -->
<g id="node9" class="node">
<title>StarsComponent</title>
<polygon fill="#ffffb3" stroke="#000000" points="449.8259,-122 340.1741,-122 340.1741,-86 449.8259,-86 449.8259,-122"/>
<text text-anchor="middle" x="395" y="-99.8" font-family="Times,serif" font-size="14.00" fill="#000000">StarsComponent</text>
</g>
<!-- StarsComponent&#45;&gt;AppModule -->
<g id="edge9" class="edge">
<title>StarsComponent&#45;&gt;AppModule</title>
<path fill="none" stroke="#000000" d="M395,-122.1061C395,-141.3391 395,-169 395,-169 395,-169 805.1857,-169 805.1857,-169"/>
<polygon fill="#000000" stroke="#000000" points="805.1858,-172.5001 815.1857,-169 805.1857,-165.5001 805.1858,-172.5001"/>
</g>
<!-- AppComponent  -->
<g id="node12" class="node">
<title>AppComponent </title>
<polygon fill="#80b1d3" stroke="#000000" points="911.439,-252 802.561,-252 802.561,-216 911.439,-216 911.439,-252"/>
<text text-anchor="middle" x="857" y="-229.8" font-family="Times,serif" font-size="14.00" fill="#000000">AppComponent </text>
</g>
<!-- AppModule&#45;&gt;AppComponent  -->
<g id="edge11" class="edge">
<title>AppModule&#45;&gt;AppComponent </title>
<path fill="none" stroke="#000000" stroke-dasharray="1,5" d="M857,-187.1061C857,-187.1061 857,-205.991 857,-205.991"/>
<polygon fill="#000000" stroke="#000000" points="853.5001,-205.9909 857,-215.991 860.5001,-205.991 853.5001,-205.9909"/>
</g>
<!-- AppRoutingModule -->
<g id="node11" class="node">
<title>AppRoutingModule</title>
<polygon fill="#8dd3c7" stroke="#000000" points="316.2744,-122 313.2744,-126 292.2744,-126 289.2744,-122 187.7256,-122 187.7256,-86 316.2744,-86 316.2744,-122"/>
<text text-anchor="middle" x="252" y="-99.8" font-family="Times,serif" font-size="14.00" fill="#000000">AppRoutingModule</text>
</g>
<!-- AppRoutingModule&#45;&gt;AppModule -->
<g id="edge10" class="edge">
<title>AppRoutingModule&#45;&gt;AppModule</title>
<path fill="none" stroke="#000000" d="M252,-122.2843C252,-143.3211 252,-175 252,-175 252,-175 804.9379,-175 804.9379,-175"/>
<polygon fill="#000000" stroke="#000000" points="804.9379,-178.5001 814.9379,-175 804.9379,-171.5001 804.9379,-178.5001"/>
</g>
<!-- ProductService -->
<g id="node13" class="node">
<title>ProductService</title>
<ellipse fill="#fdb462" stroke="#000000" cx="94" cy="-104" rx="70.0616" ry="18"/>
<text text-anchor="middle" x="94" y="-99.8" font-family="Times,serif" font-size="14.00" fill="#000000">ProductService</text>
</g>
<!-- ProductService&#45;&gt;AppModule -->
<g id="edge12" class="edge">
<title>ProductService&#45;&gt;AppModule</title>
<path fill="none" stroke="#000000" d="M94,-122.2479C94,-145.0179 94,-181 94,-181 94,-181 805.1639,-181 805.1639,-181"/>
<polygon fill="#000000" stroke="#000000" points="805.1639,-184.5001 815.1639,-181 805.1638,-177.5001 805.1639,-184.5001"/>
</g>
</g>
</svg>
